<svg width="59" height="58" viewBox="0 0 59 58" fill="none" xmlns="http://www.w3.org/2000/svg">
<path fill-rule="evenodd" clip-rule="evenodd" d="M9.61362 53.6053L9.61363 49.0981L12.1978 49.0981L12.1978 53.6053L9.61362 53.6053Z" fill="#1A3542"/>
<path fill-rule="evenodd" clip-rule="evenodd" d="M13.9207 3.44546H7.89111V0.861328H13.9207V3.44546Z" fill="#1A3542"/>
<path fill-rule="evenodd" clip-rule="evenodd" d="M13.9207 45.2223H7.89111V42.6382H13.9207V45.2223Z" fill="#1A3542"/>
<path fill-rule="evenodd" clip-rule="evenodd" d="M9.61362 41.4662L9.61363 -1.12955e-07L12.1978 0L12.1978 41.4663L9.61362 41.4662Z" fill="#1A3542"/>
<path fill-rule="evenodd" clip-rule="evenodd" d="M44.0692 3.44546H38.0396V0.861328H44.0692V3.44546Z" fill="#1A3542"/>
<path fill-rule="evenodd" clip-rule="evenodd" d="M44.0692 45.2223H38.0396V42.6382H44.0692V45.2223Z" fill="#1A3542"/>
<path fill-rule="evenodd" clip-rule="evenodd" d="M39.7621 41.4662L39.7621 -1.12955e-07L42.3462 0L42.3462 41.4663L39.7621 41.4662Z" fill="#1A3542"/>
<path fill-rule="evenodd" clip-rule="evenodd" d="M11 53.1324C15.4903 53.1324 19.1304 49.4923 19.1304 45.002C19.1304 40.5116 15.4903 36.8715 11 36.8715C6.50968 36.8715 2.86957 40.5116 2.86957 45.002C2.86957 49.4923 6.50968 53.1324 11 53.1324ZM11 56.002C17.0751 56.002 22 51.0771 22 45.002C22 38.9268 17.0751 34.002 11 34.002C4.92487 34.002 0 38.9268 0 45.002C0 51.0771 4.92487 56.002 11 56.002Z" fill="#1A3542"/>
<path fill-rule="evenodd" clip-rule="evenodd" d="M41 33L59 58L41 50.3913L23 58L41 33ZM30.489 52.0291L41 47.586L51.511 52.0291L41 37.4304L30.489 52.0291Z" fill="#1A3542"/>
</svg>
