<svg width="218" height="58" viewBox="0 0 218 58" fill="none" xmlns="http://www.w3.org/2000/svg">
<path d="M69.1399 9.00996C69.5078 9.34798 69.9179 9.63704 70.3599 9.86996C70.9642 10.15 71.6239 10.2901 72.2899 10.28C73.1374 10.3308 73.975 10.0752 74.6499 9.55996C75.256 9.05189 75.6575 8.34134 75.7799 7.55996H71.1199V5.21996H75.7699C75.6411 4.52149 75.2904 3.88321 74.7699 3.39996C74.1078 2.82436 73.2453 2.53327 72.3699 2.58996C71.6754 2.57513 70.9881 2.73321 70.3699 3.04996C69.9216 3.28256 69.5048 3.57157 69.1299 3.90996V0.909959C70.1829 0.317202 71.3715 0.00714396 72.5799 0.00995944C73.3847 -0.0292605 74.189 0.0959343 74.9438 0.377902C75.6985 0.65987 76.3879 1.0927 76.9699 1.64996C77.5644 2.28157 78.0243 3.02744 78.3217 3.84227C78.6191 4.6571 78.7478 5.52388 78.6999 6.38996C78.7847 8.16181 78.1707 9.89616 76.9899 11.22C76.4338 11.7826 75.7622 12.2179 75.0216 12.4958C74.281 12.7738 73.4888 12.8878 72.6999 12.83C71.4589 12.906 70.2225 12.6212 69.1399 12.01V9.00996Z" fill="#1A3542"/>
<path d="M83.7202 5.01004H88.5102V0.290039H91.2802V12.56H88.5102V7.35004H83.7202V12.56H80.9502V0.290039H83.7202V5.01004Z" fill="#1A3542"/>
<path d="M94.0898 0.290039H96.8598V10.17H101.31V0.290039H104.08V10.17H105.7V15.32H103.22V12.56H94.0898V0.290039Z" fill="#1A3542"/>
<path d="M110.14 0.289648V8.28965L115.71 0.139648H118.16V12.5596H115.38V4.55965L109.82 12.7496H107.37V0.289648H110.14Z" fill="#1A3542"/>
<path d="M123.73 5.40004L127.84 0.290039H131.22L126.36 6.10004L131.58 12.56H128.02L123.73 7.11004V12.56H120.96V0.290039H123.73V5.40004Z" fill="#1A3542"/>
<path d="M143.12 0.290039V12.56H140.35V2.68004H137.09V6.89004C137.09 8.99004 136.84 10.74 135.88 11.73C135.525 12.0756 135.101 12.343 134.636 12.5152C134.171 12.6874 133.675 12.7606 133.18 12.73C132.805 12.7291 132.432 12.6787 132.07 12.58V10.01C132.289 10.0858 132.519 10.123 132.75 10.12C133.154 10.1314 133.548 9.98839 133.85 9.72004C134.312 8.94403 134.502 8.03616 134.39 7.14004V0.290039H143.12Z" fill="#1A3542"/>
<path d="M156.58 1.78997C157.183 2.40154 157.659 3.12646 157.98 3.92287C158.3 4.71927 158.46 5.57138 158.45 6.42997C158.456 7.27896 158.293 8.12068 157.973 8.9067C157.652 9.69271 157.178 10.4075 156.58 11.01C155.968 11.6097 155.24 12.0785 154.44 12.3879C153.641 12.6974 152.787 12.841 151.93 12.81C151.07 12.8326 150.214 12.6852 149.411 12.3763C148.608 12.0674 147.874 11.6031 147.25 11.01C146.649 10.4136 146.174 9.70269 145.853 8.91945C145.532 8.1362 145.371 7.29648 145.38 6.44997C145.4 4.7215 146.059 3.0616 147.23 1.78997C148.515 0.637453 150.18 0 151.905 0C153.631 0 155.296 0.637453 156.58 1.78997ZM149.28 3.66997C148.923 4.03706 148.645 4.47265 148.461 4.95044C148.277 5.42824 148.192 5.93835 148.21 6.44997C148.194 6.96099 148.283 7.46994 148.472 7.9449C148.661 8.41985 148.947 8.85055 149.31 9.20997C149.65 9.5423 150.054 9.80224 150.498 9.97412C150.941 10.146 151.415 10.2262 151.89 10.21C152.386 10.232 152.881 10.151 153.344 9.97198C153.807 9.79297 154.228 9.51988 154.58 9.16997C154.924 8.80485 155.19 8.37369 155.362 7.90267C155.534 7.43165 155.608 6.93061 155.58 6.42997C155.618 5.41501 155.259 4.42517 154.58 3.66997C153.867 2.98938 152.916 2.61286 151.93 2.61997C151.441 2.60712 150.953 2.69353 150.498 2.87398C150.042 3.05443 149.628 3.3252 149.28 3.66997Z" fill="#1A3542"/>
<path d="M170.79 0.290039V12.56H168.01V2.68004H163.46V12.56H160.69V0.290039H170.79Z" fill="#1A3542"/>
<path d="M180.38 2.68004H176.38V5.01004H180.19V7.44004H176.38V10.17H180.38V12.56H173.58V0.290039H180.37L180.38 2.68004Z" fill="#1A3542"/>
<path d="M192.58 0.290039V10.2H193.94V15.32H191.45V12.56H184.09V15.32H181.58V10.2C182.088 10.1132 182.558 9.8764 182.93 9.52004C183.93 8.57004 183.93 6.82004 183.93 5.52004V0.290039H192.58ZM186.64 5.38004C186.667 6.3422 186.59 7.30445 186.41 8.25004C186.224 8.9823 185.852 9.65406 185.33 10.2H189.85V2.64004H186.64V5.38004Z" fill="#1A3542"/>
<path d="M198.38 0.289648V8.28965L203.94 0.139648H206.39V12.5596H203.58V4.55965L198.01 12.7496H195.58V0.289648H198.38Z" fill="#1A3542"/>
<path d="M217.41 12.5597H214.63V8.08973H214.27L211.45 12.5597H208.24L211.7 7.75973C211.057 7.64433 210.462 7.3417 209.99 6.88973C209.642 6.53182 209.373 6.10469 209.201 5.63609C209.029 5.16748 208.957 4.66788 208.99 4.16973C208.971 3.67753 209.05 3.18641 209.221 2.7247C209.393 2.263 209.654 1.83987 209.99 1.47973C210.424 1.06136 210.942 0.739147 211.508 0.534107C212.075 0.329066 212.679 0.245797 213.28 0.289728H217.41V12.5597ZM214.63 2.55973H213.99C213.408 2.51432 212.828 2.67346 212.35 3.00973C212.179 3.1647 212.043 3.35476 211.951 3.567C211.86 3.77924 211.815 4.00868 211.82 4.23973C211.813 4.45816 211.851 4.67567 211.932 4.8787C212.013 5.08172 212.135 5.2659 212.29 5.41973C212.782 5.77503 213.386 5.9386 213.99 5.87973H214.63V2.55973Z" fill="#1A3542"/>
<path d="M69 34.6304L70.92 22.3604H73.23L76.23 29.7004L79.23 22.3604H81.54L83.47 34.6304H80.66L79.66 27.3104L76.66 34.6304H75.66L72.66 27.3104L71.66 34.6304H69Z" fill="#1A3542"/>
<path d="M87.5802 22.3598L90.0602 28.0098L92.4702 22.3398H95.4702L89.9702 34.6298H86.9702L88.7102 31.0998L84.4302 22.3598H87.5802Z" fill="#1A3542"/>
<path d="M96.4601 23.4602C96.9495 23.0561 97.5041 22.7382 98.1001 22.5202C98.8429 22.2187 99.6386 22.0691 100.44 22.0802C101.027 22.045 101.614 22.1268 102.169 22.3208C102.723 22.5148 103.234 22.8171 103.67 23.2102C103.98 23.5277 104.22 23.9056 104.377 24.3203C104.533 24.735 104.603 25.1775 104.58 25.6202C104.598 26.1886 104.438 26.7484 104.12 27.2202C103.83 27.6275 103.427 27.9404 102.96 28.1202C103.521 28.2717 104.031 28.5684 104.44 28.9802C104.985 29.5768 105.276 30.3626 105.25 31.1702C105.248 32.0918 104.89 32.9768 104.25 33.6402C103.765 34.088 103.194 34.4316 102.572 34.6501C101.949 34.8685 101.288 34.957 100.63 34.9102C99.6419 34.9466 98.658 34.7621 97.7501 34.3702C97.0626 34.0512 96.4338 33.6185 95.8901 33.0902L97.4701 31.0102C97.8193 31.4121 98.2355 31.7504 98.7001 32.0102C99.2029 32.273 99.7629 32.407 100.33 32.4002C100.82 32.4157 101.303 32.2871 101.72 32.0302C101.9 31.8994 102.046 31.7279 102.147 31.5298C102.248 31.3317 102.3 31.1125 102.3 30.8902C102.305 30.7014 102.268 30.5138 102.192 30.3409C102.116 30.168 102.003 30.0141 101.86 29.8902C101.171 29.4903 100.37 29.3286 99.5801 29.4302H99.1301V27.1802H99.5801C100.283 27.2719 100.995 27.101 101.58 26.7002C101.692 26.5939 101.781 26.4649 101.839 26.3218C101.898 26.1787 101.926 26.0248 101.92 25.8702C101.921 25.6852 101.878 25.5026 101.794 25.3375C101.711 25.1724 101.59 25.0294 101.44 24.9202C101.064 24.6832 100.624 24.568 100.18 24.5902C99.7121 24.5868 99.2498 24.693 98.8301 24.9002C98.437 25.0906 98.0733 25.3364 97.7501 25.6302L96.4601 23.4602Z" fill="#1A3542"/>
<path d="M107.5 22.3604H110.27V27.1404H111.93C113.115 27.0327 114.295 27.3914 115.22 28.1404C115.566 28.5016 115.834 28.9307 116.006 29.4005C116.178 29.8704 116.251 30.3709 116.22 30.8704C116.246 31.3647 116.17 31.8592 115.998 32.3234C115.826 32.7877 115.561 33.212 115.22 33.5704C114.252 34.3329 113.026 34.6913 111.8 34.5704H107.46L107.5 22.3604ZM110.27 32.3603H111.49C111.992 32.3992 112.495 32.2841 112.93 32.0304C113.094 31.8868 113.225 31.7099 113.315 31.5116C113.404 31.3133 113.451 31.0981 113.451 30.8804C113.451 30.6626 113.404 30.4474 113.315 30.2491C113.225 30.0508 113.094 29.8739 112.93 29.7304C112.494 29.4788 111.99 29.3737 111.49 29.4304H110.25L110.27 32.3603ZM120.12 22.3604V34.6304H117.35V22.3604H120.12Z" fill="#1A3542"/>
<path d="M125.7 27.4704L129.8 22.3604H133.19L128.32 28.1704L133.58 34.6304H130.02L125.72 29.1904V34.6304H122.94V22.3604H125.72L125.7 27.4704Z" fill="#1A3542"/>
<path d="M142.22 32.3104H137.68L136.77 34.6304H133.88L138.73 22.3604H141.27L146 34.6304H143.12L142.22 32.3104ZM141.46 30.1404L139.99 26.0104L138.49 30.1304L141.46 30.1404Z" fill="#1A3542"/>
<path d="M157.83 22.3604V34.6304H155.05V24.7504H151.8V29.0104C151.8 31.1004 151.54 32.8504 150.59 33.8404C150.234 34.1854 149.81 34.4524 149.345 34.6246C148.88 34.7968 148.385 34.8703 147.89 34.8404C147.512 34.8402 147.135 34.7897 146.77 34.6904V32.0904C146.991 32.1705 147.225 32.2078 147.46 32.2003C147.862 32.2165 148.254 32.0727 148.55 31.8004C149.016 31.0261 149.207 30.1167 149.09 29.2204V22.3604H157.83Z" fill="#1A3542"/>
<path d="M160.63 22.3604H163.41V27.1404H165.1C166.285 27.0327 167.465 27.3914 168.39 28.1404C168.736 28.5016 169.004 28.9307 169.176 29.4005C169.348 29.8704 169.421 30.3709 169.39 30.8704C169.416 31.3647 169.34 31.8592 169.168 32.3234C168.996 32.7877 168.731 33.212 168.39 33.5704C167.422 34.3339 166.196 34.6924 164.97 34.5704H160.59L160.63 22.3604ZM163.41 32.3603H164.63C165.132 32.3979 165.634 32.2829 166.07 32.0304C166.244 31.8983 166.383 31.725 166.474 31.526C166.565 31.327 166.604 31.1086 166.59 30.8904C166.608 30.6708 166.572 30.4501 166.485 30.2477C166.398 30.0454 166.262 29.8677 166.09 29.7304C165.654 29.4802 165.15 29.3751 164.65 29.4304H163.41V32.3603Z" fill="#1A3542"/>
<path d="M174.13 27.0104H178.92V22.3604H181.7V34.6304H178.92V29.4204H174.13V34.6304H171.36V22.3604H174.13V27.0104Z" fill="#1A3542"/>
<path d="M184.5 22.3604H187.27V27.1404H188.93C190.115 27.0305 191.296 27.3895 192.22 28.1404C192.566 28.5016 192.834 28.9307 193.006 29.4005C193.178 29.8704 193.251 30.3709 193.22 30.8704C193.246 31.3647 193.17 31.8592 192.998 32.3234C192.826 32.7877 192.561 33.212 192.22 33.5704C191.252 34.3339 190.026 34.6924 188.8 34.5704H184.46L184.5 22.3604ZM187.27 32.3603H188.5C189.002 32.3967 189.504 32.2817 189.94 32.0304C190.101 31.885 190.229 31.7076 190.317 31.5095C190.405 31.3114 190.451 31.0971 190.451 30.8804C190.451 30.6636 190.405 30.4493 190.317 30.2512C190.229 30.0531 190.101 29.8757 189.94 29.7304C189.504 29.4802 189 29.3751 188.5 29.4304H187.25L187.27 32.3603ZM197.12 22.3604V34.6304H194.35V22.3604H197.12Z" fill="#1A3542"/>
<path d="M203.2 28.1204L199.48 22.3604H202.81L204.81 25.8604L206.81 22.3604H210.14L206.41 28.1204L210.82 34.6304H207.49L204.83 30.3804L202.16 34.6304H198.83L203.2 28.1204Z" fill="#1A3542"/>
<path d="M72.3301 44.4298V52.4298L77.8901 44.2598H80.3401V56.7098H77.5801V48.6598L72.0101 56.8498H69.5801V44.4298H72.3301Z" fill="#1A3542"/>
<path d="M85.9201 49.1097H90.7101V44.4297H93.4801V56.7097H90.7101V51.4997H85.9201V56.7097H83.1401V44.4297H85.9201V49.1097Z" fill="#1A3542"/>
<path d="M104.96 56.3203C104.146 56.7596 103.235 56.9866 102.31 56.9803C101.442 57.0226 100.574 56.8864 99.7607 56.5803C98.9471 56.2741 98.205 55.8045 97.5801 55.2003C96.3753 53.9562 95.7017 52.2922 95.7017 50.5603C95.7017 48.8284 96.3753 47.1645 97.5801 45.9203C98.1744 45.3468 98.876 44.8961 99.6448 44.5941C100.414 44.2921 101.234 44.1447 102.06 44.1603C103.058 44.1773 104.04 44.4092 104.94 44.8403V48.1103C104.59 47.707 104.159 47.3826 103.675 47.1585C103.19 46.9344 102.664 46.8157 102.13 46.8103C101.675 46.8019 101.223 46.8862 100.802 47.0581C100.381 47.2301 99.9991 47.486 99.6801 47.8103C98.9654 48.5625 98.571 49.5628 98.5801 50.6003C98.5584 51.0943 98.6357 51.5876 98.8075 52.0513C98.9792 52.5149 99.2419 52.9396 99.5801 53.3003C99.9263 53.63 100.334 53.888 100.78 54.0596C101.227 54.2312 101.702 54.313 102.18 54.3003C102.702 54.2927 103.216 54.1758 103.69 53.957C104.163 53.7383 104.586 53.4226 104.93 53.0303L104.96 56.3203Z" fill="#1A3542"/>
<path d="M111.94 46.8197V56.7097H109.17V46.8197H106.58V44.4297H114.58V46.8197H111.94Z" fill="#1A3542"/>
<path d="M120.42 44.4298C121.559 44.3465 122.687 44.7045 123.57 45.4298C123.972 45.8146 124.284 46.2824 124.487 46.8005C124.689 47.3187 124.775 47.8748 124.74 48.4298C124.8 49.4842 124.44 50.5195 123.74 51.3098C123.335 51.6954 122.853 51.9917 122.326 52.1795C121.799 52.3672 121.238 52.4423 120.68 52.3998H118.98V56.7098H116.21V44.4298H120.42ZM118.96 50.0798H119.96C120.501 50.125 121.038 49.9603 121.46 49.6198C121.76 49.2891 121.921 48.856 121.91 48.4098C121.919 48.1899 121.884 47.9702 121.807 47.7641C121.73 47.5579 121.612 47.3694 121.46 47.2098C121.022 46.8616 120.467 46.6967 119.91 46.7498H118.97L118.96 50.0798Z" fill="#1A3542"/>
<path d="M128.52 44.4297L131.04 50.0997L133.45 44.4297H136.45L130.95 56.7097H127.95L129.7 53.1697L125.41 44.4297H128.52Z" fill="#1A3542"/>
<path d="M137.11 56.7097L139.03 44.4297H141.34L144.34 51.7697L147.34 44.4297H149.58L151.58 56.7097H148.8L147.85 49.3797L144.85 56.7097H143.85L140.85 49.3797L139.9 56.7097H137.11Z" fill="#1A3542"/>
<path d="M160.58 46.8197H156.58V49.1997H160.4V51.5897H156.58V54.3097H160.58V56.7097H153.79V44.4297H160.58V46.8197Z" fill="#1A3542"/>
<path d="M165.78 49.1097H170.58V44.4297H173.35V56.7097H170.58V51.4997H165.78V56.7097H163.01V44.4297H165.78V49.1097Z" fill="#1A3542"/>
<path d="M180.36 46.8197V56.7097H177.58V46.8197H174.98V44.4297H182.98V46.8197H180.36Z" fill="#1A3542"/>
<path d="M194.89 45.9397C195.494 46.5503 195.97 47.275 196.291 48.0717C196.612 48.8683 196.772 49.7209 196.76 50.5797C196.777 51.435 196.619 52.2848 196.296 53.0769C195.972 53.869 195.491 54.5867 194.88 55.186C194.27 55.7853 193.543 56.2535 192.745 56.562C191.947 56.8704 191.095 57.0126 190.24 56.9797C189.38 57.0023 188.524 56.8549 187.72 56.546C186.917 56.2372 186.183 55.7728 185.56 55.1797C184.959 54.5811 184.484 53.8684 184.163 53.0836C183.842 52.2988 183.681 51.4576 183.69 50.6097C183.728 48.8951 184.402 47.2559 185.58 46.0097C186.864 44.8572 188.529 44.2197 190.255 44.2197C191.98 44.2197 193.645 44.8572 194.93 46.0097L194.89 45.9397ZM187.58 47.8197C187.235 48.1919 186.968 48.63 186.796 49.1077C186.624 49.5854 186.551 50.0929 186.58 50.5997C186.563 51.1107 186.652 51.6197 186.841 52.0946C187.031 52.5696 187.316 53.0003 187.68 53.3597C188.02 53.692 188.424 53.952 188.867 54.1238C189.311 54.2957 189.784 54.3759 190.26 54.3597C190.748 54.3834 191.236 54.3069 191.693 54.1349C192.151 53.963 192.568 53.6991 192.92 53.3597C193.272 52.9987 193.547 52.5694 193.728 52.0982C193.909 51.627 193.991 51.1239 193.97 50.6197C193.994 49.5978 193.617 48.6071 192.92 47.8597C192.209 47.1806 191.263 46.8041 190.28 46.8097C189.785 46.7859 189.29 46.8632 188.826 47.0369C188.362 47.2105 187.938 47.4769 187.58 47.8197Z" fill="#1A3542"/>
<path d="M202.68 44.4303C203.781 44.3551 204.871 44.69 205.74 45.3703C206.032 45.6801 206.259 46.0447 206.408 46.443C206.557 46.8413 206.626 47.2652 206.61 47.6903C206.621 48.237 206.483 48.7765 206.21 49.2503C205.982 49.65 205.631 49.9656 205.21 50.1503C205.834 50.2546 206.412 50.5437 206.87 50.9803C207.403 51.5819 207.679 52.3678 207.64 53.1703C207.659 53.6264 207.586 54.0815 207.426 54.5091C207.266 54.9366 207.023 55.328 206.71 55.6603C205.837 56.3933 204.719 56.7685 203.58 56.7103H199.06V44.4303H202.68ZM201.74 49.4303H202.19C202.684 49.4505 203.173 49.3291 203.6 49.0803C203.762 48.95 203.89 48.7833 203.975 48.5939C204.061 48.4045 204.1 48.1977 204.09 47.9903C204.091 47.7992 204.049 47.6104 203.968 47.4374C203.886 47.2645 203.768 47.1118 203.62 46.9903C203.187 46.7312 202.681 46.6222 202.18 46.6803H201.74V49.4303ZM201.74 54.5103H202.41C203.115 54.5851 203.823 54.408 204.41 54.0103C204.542 53.88 204.645 53.724 204.714 53.5519C204.783 53.3799 204.816 53.1955 204.81 53.0103C204.821 52.8263 204.792 52.6421 204.727 52.4698C204.661 52.2974 204.56 52.1409 204.43 52.0103C203.838 51.6266 203.13 51.4638 202.43 51.5503H201.67L201.74 54.5103Z" fill="#1A3542"/>
<path fill-rule="evenodd" clip-rule="evenodd" d="M9.61352 53.6058L9.61352 49.0986L12.1976 49.0986L12.1976 53.6058L9.61352 53.6058Z" fill="#1A3542"/>
<path fill-rule="evenodd" clip-rule="evenodd" d="M13.9206 3.44546H7.89094V0.861328H13.9206V3.44546Z" fill="#1A3542"/>
<path fill-rule="evenodd" clip-rule="evenodd" d="M13.9206 45.2228H7.89094V42.6387H13.9206V45.2228Z" fill="#1A3542"/>
<path fill-rule="evenodd" clip-rule="evenodd" d="M9.61352 41.4663L9.61352 -1.12955e-07L12.1976 0L12.1976 41.4663L9.61352 41.4663Z" fill="#1A3542"/>
<path fill-rule="evenodd" clip-rule="evenodd" d="M44.0691 3.44546H38.0394V0.861328H44.0691V3.44546Z" fill="#1A3542"/>
<path fill-rule="evenodd" clip-rule="evenodd" d="M44.0691 45.2228H38.0394V42.6387H44.0691V45.2228Z" fill="#1A3542"/>
<path fill-rule="evenodd" clip-rule="evenodd" d="M39.762 41.4663L39.762 -1.12955e-07L42.3461 0L42.3461 41.4663L39.762 41.4663Z" fill="#1A3542"/>
<path fill-rule="evenodd" clip-rule="evenodd" d="M11 53.1324C15.4903 53.1324 19.1304 49.4923 19.1304 45.002C19.1304 40.5116 15.4903 36.8715 11 36.8715C6.50969 36.8715 2.86957 40.5116 2.86957 45.002C2.86957 49.4923 6.50969 53.1324 11 53.1324ZM11 56.002C17.0751 56.002 22 51.0771 22 45.002C22 38.9268 17.0751 34.002 11 34.002C4.92487 34.002 0 38.9268 0 45.002C0 51.0771 4.92487 56.002 11 56.002Z" fill="#1A3542"/>
<path fill-rule="evenodd" clip-rule="evenodd" d="M41 33L59 58L41 50.3913L23 58L41 33ZM30.489 52.0291L41 47.586L51.511 52.0291L41 37.4304L30.489 52.0291Z" fill="#1A3542"/>
</svg>
