<svg width="21" height="23" viewBox="0 0 21 23" fill="none" xmlns="http://www.w3.org/2000/svg">
<path fill-rule="evenodd" clip-rule="evenodd" d="M7.57263 13.8471C11.0379 13.8471 13.8471 11.0379 13.8471 7.57263C13.8471 4.10734 11.0379 1.29817 7.57263 1.29817C4.10734 1.29817 1.29817 4.10734 1.29817 7.57263C1.29817 11.0379 4.10734 13.8471 7.57263 13.8471ZM7.57263 15.1453C11.7549 15.1453 15.1453 11.7549 15.1453 7.57263C15.1453 3.39038 11.7549 0 7.57263 0C3.39038 0 0 3.39038 0 7.57263C0 11.7549 3.39038 15.1453 7.57263 15.1453Z" fill="#1A3542"/>
<path fill-rule="evenodd" clip-rule="evenodd" d="M11.2246 12.9554C11.4781 12.7019 11.8891 12.7019 12.1426 12.9554L19.9316 20.7444C20.185 20.9979 20.185 21.4089 19.9316 21.6624C19.6781 21.9158 19.2671 21.9158 19.0136 21.6624L11.2246 13.8734C10.9711 13.6199 10.9711 13.2089 11.2246 12.9554Z" fill="#1A3542"/>
</svg>
