<svg width="40" height="36" viewBox="0 0 40 36" fill="none" xmlns="http://www.w3.org/2000/svg">
<rect x="1.5" y="1.5" width="37" height="33" rx="9.5" fill="#1A3542" stroke="#1A3542" stroke-width="3"/>
<path fill-rule="evenodd" clip-rule="evenodd" d="M30.2666 9.24982C30.5527 9.49699 30.6743 9.87991 30.5818 10.2426L26.5002 26.2426C26.411 26.5921 26.1369 26.8676 25.7826 26.9637C25.4283 27.0599 25.0486 26.9619 24.7887 26.7071L20.5186 22.5224L18.1633 25.6C17.9356 25.8976 17.5581 26.0467 17.1835 25.9871C16.8089 25.9275 16.4989 25.6691 16.3789 25.3162L14.4718 19.7092L10.7682 17.8944C10.4072 17.7176 10.1865 17.3488 10.2052 16.9537C10.2239 16.5585 10.4785 16.2114 10.8547 16.068L29.222 9.06801C29.5775 8.93253 29.9804 9.00266 30.2666 9.24982ZM21.1422 20.3051C21.1346 20.2975 21.1269 20.2899 21.1191 20.2825L20.8309 20L24.191 16.7071C24.5894 16.3166 24.5894 15.6834 24.191 15.2929C23.7925 14.9024 23.1464 14.9024 22.7479 15.2929L18.6662 19.2929C18.2677 19.6834 18.2677 20.3166 18.6662 20.7071L19.0609 21.0939L17.6991 22.8732L16.2742 18.6838C16.1886 18.4322 16.0045 18.2242 15.7625 18.1056L13.7397 17.1144L28.1236 11.6325L24.9574 24.044L21.1422 20.3051Z" fill="#F5F5F5"/>
</svg>
