<svg width="40" height="36" viewBox="0 0 40 36" fill="none" xmlns="http://www.w3.org/2000/svg">
<rect x="1.5" y="1.5" width="37" height="33" rx="9.5" stroke="#1A3542" stroke-width="3"/>
<path fill-rule="evenodd" clip-rule="evenodd" d="M8.36737 11C8.36737 10.4477 8.82422 10 9.38778 10H13.4694C14.033 10 14.4898 10.4477 14.4898 11V16C14.4898 16.7956 14.8123 17.5587 15.3864 18.1213C15.7124 18.4407 16.1042 18.6807 16.5306 18.8284V11C16.5306 10.4477 16.9875 10 17.551 10H21.6327C22.1962 10 22.6531 10.4477 22.6531 11V14.1857C23.0829 13.983 23.4708 13.6971 23.7917 13.341C24.373 12.6958 24.6939 11.8647 24.6939 11.004C24.6939 10.4517 25.1508 10.004 25.7143 10.004H29.7959C30.1016 10.004 30.3912 10.1383 30.585 10.37C30.7788 10.6016 30.8565 10.9062 30.7966 11.2L30.4476 12.911L30.4476 12.9111C30.2081 14.0845 29.6983 15.1889 28.9571 16.1398C28.5958 16.6033 28.1843 17.0244 27.7308 17.3962C28.152 17.6885 28.5378 18.0304 28.879 18.4159C29.639 19.2746 30.1495 20.3177 30.357 21.4361L30.3571 21.4363L30.7999 23.8253C30.854 24.117 30.7732 24.4172 30.5793 24.6448C30.3854 24.8724 30.0985 25.004 29.7959 25.004H25.7143C25.1508 25.004 24.6939 24.5563 24.6939 24.004C24.6939 23.1433 24.373 22.3122 23.7917 21.667C23.4785 21.3194 23.1013 21.0386 22.6837 20.8369V24.008C22.6837 24.3187 22.5364 24.6117 22.285 24.801C22.07 24.9629 21.7998 25.0331 21.5344 25H17.551C15.1154 25 12.7795 24.0518 11.0572 22.364C9.33493 20.6761 8.36737 18.3869 8.36737 16V11ZM20.6429 23V19.508C20.6429 19.2212 20.7685 18.9482 20.9879 18.7584C21.2073 18.5686 21.4992 18.4802 21.7896 18.5157C23.1548 18.6826 24.4108 19.3325 25.3215 20.3432C26.0041 21.1009 26.4575 22.0222 26.6417 23.004H28.5735L28.3491 21.7939C28.3491 21.7938 28.3491 21.7938 28.3491 21.7937C28.2071 21.0282 27.8576 20.3142 27.3374 19.7264C26.8171 19.1386 26.1451 18.6987 25.3918 18.4527C25.0002 18.3249 24.7258 17.9784 24.6965 17.575C24.6672 17.1715 24.8888 16.7904 25.258 16.6096C26.0722 16.2106 26.7827 15.6347 27.3352 14.9258C27.8878 14.2169 28.2678 13.3936 28.4464 12.5189L28.5514 12.004H26.6417C26.4575 12.9858 26.0041 13.9071 25.3215 14.6648C24.4108 15.6755 23.1548 16.3254 21.7896 16.4923C21.7477 16.4974 21.7055 16.5 21.6633 16.5H21.6327C21.0691 16.5 20.6123 16.0523 20.6123 15.5V12H18.5715V20C18.5715 20.2652 18.4639 20.5196 18.2726 20.7071C18.0812 20.8946 17.8217 21 17.551 21C16.1979 21 14.9002 20.4732 13.9434 19.5355C12.9865 18.5979 12.449 17.3261 12.449 16V12H10.4082V16C10.4082 17.8565 11.1607 19.637 12.5003 20.9497C13.8398 22.2625 15.6566 23 17.551 23H20.6429Z" fill="#1A3542"/>
</svg>
